HIERARCHY
ROOT pelvis
{
  OFFSET 0 100 0
  CHANNELS 6 Xposition Yposition Zposition Zrotation Xrotation Yrotation
  JOINT pelvis_right_femur
  {
    OFFSET -10.78128 -3.44521 -0.5502486
    CHANNELS 3 Zrotation Xrotation Yrotation
    JOINT right_femur_tibia
    {
      OFFSET -0.8047443 -44.0398 -0.1307829
      CHANNELS 3 Zrotation Xrotation Yrotation
      JOINT right_tibia_foot
      {
        OFFSET 3.006224 -47.83518 -5
        CHANNELS 3 Zrotation Xrotation Yrotation
        End Site
        {
          OFFSET 0 -5 15
        }
      }
    }
  }
  JOINT pelvis_left_femur
  {
    OFFSET 10.78128 -3.44521 -0.5502486
    CHANNELS 3 Zrotation Xrotation Yrotation
    JOINT left_femur_tibia
    {
      OFFSET 0.8047443 -44.0398 -0.1307829
      CHANNELS 3 Zrotation Xrotation Yrotation
      JOINT left_tibia_foot
      {
        OFFSET -4.370144 -48.10324 -4.275266
        CHANNELS 3 Zrotation Xrotation Yrotation
        End Site
        {
          OFFSET 0 -5 15
        }
      }
    }
  }
  JOINT pelvis_spine1
  {
    OFFSET 0 6.468898 -3.129235
    CHANNELS 3 Zrotation Xrotation Yrotation
    JOINT spine1
    {
      OFFSET 0 23.15396 4.99043
      CHANNELS 3 Zrotation Xrotation Yrotation
      JOINT spine2
      {
        OFFSET 0 20.79997 -5.064912
        CHANNELS 3 Zrotation Xrotation Yrotation
        JOINT neck
        {
          OFFSET 0 14.38658 9.616178
          CHANNELS 3 Zrotation Xrotation Yrotation
          End Site
          {
            OFFSET 0 20 0
          }
        }
      }
      JOINT right_manubrium
      {
        OFFSET -5.722621 16.35077 3.967754
        CHANNELS 3 Zrotation Xrotation Yrotation
        JOINT right_clavicle
        {
          OFFSET -13.16364 1.694482 -4.693211
          CHANNELS 3 Zrotation Xrotation Yrotation
          JOINT right_humerus
          {
            OFFSET -28.5034 -0.3100689 -2.792744
            CHANNELS 3 Zrotation Xrotation Yrotation
            JOINT right_radius
            {
              OFFSET -25.15693 0.02248979 -1.271978
              CHANNELS 3 Zrotation Xrotation Yrotation
              End Site
              {
                OFFSET -15 0 0
              }
            }
          }
        }
      }
      JOINT left_manubrium
      {
        OFFSET 5.722621 16.35077 3.967754
        CHANNELS 3 Zrotation Xrotation Yrotation
        JOINT left_clavicle
        {
          OFFSET 13.16364 1.694482 -4.693211
          CHANNELS 3 Zrotation Xrotation Yrotation
          JOINT left_humerus
          {
            OFFSET 29.39168 -1.063119 -2.237045
            CHANNELS 3 Zrotation Xrotation Yrotation
            JOINT left_radius
            {
              OFFSET 24.59957 -0.9528479 0.9047498
              CHANNELS 3 Zrotation Xrotation Yrotation
              End Site
              {
                OFFSET 15 -0 -0
              }
            }
          }
        }
      }
    }
  }
}
MOTION
Frames: 9
Frame Time: 0.0416666666667
0 103.5113 0 0.8522468 -1.840515 0.8749008 1.016403 -21.92422 2.987863 -0 35.29607 -0 -3.810546 -4.582341 -3.635085 -6.316231 12.62191 -16.96369 0 -4.701181 0 3.015599 -21.4873 20.23083 -3.576108 -1.390017 2.850491 1.435554 8.66822 -7.157607 1.460186 22.22401 7.198045 2.957453 -21.54458 9.088251 3.973392 -17.95137 10.48026 87.01269 31.45713 -18.05543 -0 0 13.98129 -15.25412 10.08897 8.825889 6.281475 -19.94481 -3.543168 -88.75272 27.04553 15.9986 0 0 -19.4221 3.423221 14.03858 9.858034
0.591775 102.2098 3.842139 0.8734331 -1.762721 1.723491 1.022253 -22.01903 3.019333 -0 35.2288 -0 -3.799433 -4.696272 -3.624074 -6.316802 12.64842 -17.03507 0 -5.010434 0 3.060718 -21.56616 20.27968 -3.589494 -1.39642 2.850455 1.452517 8.641904 -7.170152 1.454634 22.21046 7.210012 2.961174 -21.58827 9.102977 3.997836 -17.97145 10.47821 86.97286 31.53848 -18.05116 -0 0 14.03157 -15.17572 10.07501 8.804238 6.291162 -19.93184 -3.516444 -88.79172 27.11715 16.04864 0 0 -19.44772 3.394036 14.05367 9.902187
1.013833 100.5163 7.32287 0.2737729 -0.1776287 2.300409 2.513124 -27.34278 2.788953 -0 24.57576 -0 -5.68498 -6.992304 -3.131213 -5.604121 15.07516 -17.46952 0 -5.956797 0 4.400075 -22.43199 20.09334 -3.122447 -1.859227 2.6755 2.21884 8.851748 -8.057915 1.221938 21.71995 7.154548 3.116179 -22.87517 8.903344 3.808782 -18.51206 10.68157 88.04534 32.05669 -20.40294 -0 0 13.41691 -13.01241 9.841524 7.694941 6.906654 -21.66472 -3.588983 -88.71298 26.70863 15.87192 0 0 -22.62725 5.274274 15.10256 7.888206
1.342845 98.62785 10.71774 0.02731679 0.2293864 2.781239 3.181796 -29.22833 2.667142 -0 20.16235 -0 -6.458823 -7.589751 -3.038356 -5.285962 15.98639 -17.31911 0 -4.57412 0 4.611149 -22.43471 19.71963 -2.849196 -1.998927 2.612847 2.488246 9.017281 -8.390893 1.153964 21.57039 7.076921 3.154191 -23.22215 8.761803 3.656652 -18.58492 10.77339 88.66307 31.98924 -21.46844 -0 0 12.89473 -12.38589 9.837634 7.271432 7.109413 -22.42473 -3.698216 -88.4893 26.33366 15.51632 0 0 -23.94921 6.080229 15.40298 6.99217
1.568264 96.70299 14.18613 -0.1862389 0.3225713 3.134655 3.849247 -30.65615 2.51696 -0 16.15949 -0 -7.129383 -7.725252 -3.086069 -4.986346 16.78732 -16.80137 0 -1.177419 0 4.368372 -22.04526 19.01101 -2.509597 -2.05693 2.558162 2.684448 9.245635 -8.662251 1.127059 21.49805 6.948615 3.157935 -23.32277 8.572919 3.449313 -18.44071 10.86257 89.41766 31.63819 -22.56892 -0 0 12.07544 -12.09958 9.95854 6.901476 7.229384 -23.15668 -3.884155 -88.04852 25.79732 14.8197 0 0 -25.19899 6.793683 15.51845 6.164851
1.710173 94.85666 17.85608 -0.293364 0.04449274 3.38471 4.31391 -31.14684 2.368154 -0 13.79799 -0 -7.477435 -7.316815 -3.269363 -4.799083 17.22303 -16.02481 -0 3.460454 -0 3.695487 -21.32712 18.14925 -2.197029 -2.004753 2.529196 2.741183 9.473614 -8.783586 1.154417 21.53264 6.802513 3.123153 -23.11955 8.389015 3.245439 -18.09515 10.9231 90.08654 31.08782 -23.37234 -0 0 11.17173 -12.27199 10.1887 6.699364 7.219352 -23.6346 -4.099209 -87.507 25.24638 13.95668 0 0 -25.9985 7.173752 15.39839 5.680038
1.778254 93.186 21.83449 -0.3340985 -0.5043595 3.539971 4.681535 -30.98981 2.213321 -0 12.34242 -0 -7.616659 -6.542097 -3.558427 -4.668342 17.39187 -15.00207 -0 9.337026 -0 2.674849 -20.30349 17.13366 -1.87641 -1.869291 2.52319 2.706564 9.714301 -8.807038 1.222012 21.64142 6.631134 3.058903 -22.69168 8.194749 3.031988 -17.58804 10.97069 90.72507 30.3738 -24.01193 -0 0 10.15858 -12.7692 10.51882 6.600068 7.11521 -23.96325 -4.344569 -86.87695 24.65205 12.9384 0 0 -26.54373 7.327557 15.10409 5.424146
1.783496 91.77158 26.20022 -0.3168515 -1.269252 3.609359 4.961552 -30.19255 2.068617 -0 11.68001 -0 -7.55162 -5.524679 -3.931591 -4.576466 17.23555 -13.78498 -0 16.13993 -0 1.380023 -19.0107 16.04041 -1.555772 -1.660844 2.549981 2.591364 9.953417 -8.735922 1.323748 21.80925 6.439775 2.969825 -22.07899 7.996966 2.819956 -16.96522 11.00792 91.28813 29.55639 -24.45525 -0 0 9.113726 -13.53687 10.93298 6.603371 6.926885 -24.13362 -4.59953 -86.21716 24.04992 11.85622 0 0 -26.82978 7.248367 14.65934 5.412414
1.735586 90.68367 31.01384 -0.2543793 -2.213873 3.59716 5.177496 -28.73619 1.942538 -0 11.62245 -0 -7.302414 -4.371222 -4.37127 -4.491212 16.67581 -12.39048 -0 23.72715 -0 -0.1391735 -17.44678 14.91841 -1.231157 -1.387975 2.622633 2.404646 10.18854 -8.5728 1.454751 22.02299 6.22627 2.858636 -21.3093 7.793123 2.608429 -16.26786 11.04008 91.75113 28.6654 -24.68435 -0 0 8.0934 -14.54098 11.42305 6.711253 6.662297 -24.15144 -4.85253 -85.57042 23.44722 10.78364 0 0 -26.86193 6.948448 14.07997 5.635815
